name analog
datacolumns 19
datarows 56
range 0.1885 0.216
endheader
time	ground_force_vx	ground_force_vy	ground_force_vz	ground_force_px	ground_force_py	ground_force_pz	l_ground_force_vx	l_ground_force_vy	l_ground_force_vz	l_ground_force_px	l_ground_force_py	l_ground_force_pz	ground_torque_x	ground_torque_y	ground_torque_z	l_ground_torque_x	l_ground_torque_y	l_ground_torque_z
0.1885	-0.0	-0.0	-0.0	6.838426113128662	13.722237586975098	-338.0084533691406	3.463493585586548	-15.022199630737305	-375.29345703125	-0.0	-0.0	-0.0	-0.0	-0.0	-0.0	91862.7421875	-33344.1328125	-1396.8238525390625
0.189	-0.0	-0.0	-0.0	6.070188999176025	13.648564338684082	-338.3617248535156	3.4597206115722656	-14.738373756408691	-374.36529541015625	-0.0	-0.0	-0.0	-0.0	-0.0	-0.0	91596.3984375	-33392.828125	-1485.7554931640625
0.1895	-0.0	-0.0	-0.0	5.880070686340332	13.9778413772583	-338.6995849609375	3.286135196685791	-14.492395401000977	-375.7475280761719	-0.0	-0.0	-0.0	-0.0	-0.0	-0.0	92206.890625	-33275.6484375	-1688.345947265625
0.19	-0.0	-0.0	-0.0	5.096846580505371	14.078658103942873	-341.3686828613281	3.363262414932251	-14.738151550292969	-377.7210693359375	-0.0	-0.0	-0.0	-0.0	-0.0	-0.0	92316.4140625	-32936.9609375	-1751.5299072265625
0.1905	-0.0	-0.0	-0.0	5.243485450744629	14.423192024230955	-338.81005859375	2.6808793544769287	-14.304219245910645	-378.4957275390625	-0.0	-0.0	-0.0	-0.0	-0.0	-0.0	92499.734375	-32916.359375	-1815.1566162109373
0.191	-0.0	-0.0	-0.0	4.793313503265381	14.698505401611328	-342.21551513671875	2.5686798095703125	-14.054895401000977	-378.17767333984375	-0.0	-0.0	-0.0	-0.0	-0.0	-0.0	92729.328125	-32920.078125	-1989.2337646484373
0.1915	-0.0	-0.0	-0.0	3.6697709560394287	14.637600898742676	-342.2474060058594	2.1369998455047607	-14.327878952026367	-381.5602416992188	-0.0	-0.0	-0.0	-0.0	-0.0	-0.0	93274.8359375	-32839.76171875	-2305.292724609375
0.192	-0.0	-0.0	-0.0	3.5479984283447266	15.156249046325684	-343.9810791015625	2.2177696228027344	-14.135459899902344	-383.0509033203125	-0.0	-0.0	-0.0	-0.0	-0.0	-0.0	93589.2265625	-32602.34765625	-2171.5087890625
0.1925	-0.0	-0.0	-0.0	2.6845362186431885	15.500475883483888	-345.8282775878906	1.4355086088180542	-14.581110954284668	-384.0826416015625	-0.0	-0.0	-0.0	-0.0	-0.0	-0.0	93896.546875	-32756.484375	-2374.45703125
0.193	-0.0	-0.0	-0.0	2.9439468383789062	15.423704147338867	-350.2723693847656	1.6049370765686035	-14.488810539245604	-384.76507568359375	-0.0	-0.0	-0.0	-0.0	-0.0	-0.0	94074.8125	-32741.67578125	-2517.1748046875
0.1935	-0.0	-0.0	-0.0	3.016413688659668	15.852664947509766	-351.0277099609375	1.605012059211731	-14.669581413269045	-386.543212890625	-0.0	-0.0	-0.0	-0.0	-0.0	-0.0	94154.96875	-32622.203125	-2490.24169921875
0.194	-0.0	-0.0	-0.0	3.041581392288208	15.78028964996338	-350.724365234375	1.6050639152526855	-14.838043212890623	-385.91021728515625	-0.0	-0.0	-0.0	-0.0	-0.0	-0.0	93861.3515625	-32514.15625	-2463.360107421875
0.1945	-0.0	-0.0	-0.0	3.389999389648437	15.351658821105955	-350.7749938964844	1.5039108991622925	-14.922210693359377	-386.1781005859375	-0.0	-0.0	-0.0	-0.0	-0.0	-0.0	93985.921875	-32284.328125	-2368.86767578125
0.195	-0.0	-0.0	-0.0	3.988748550415039	15.190720558166504	-351.4310302734375	2.2896409034729004	-14.762295722961426	-385.6965637207031	-0.0	-0.0	-0.0	-0.0	-0.0	-0.0	93514.609375	-32235.53125	-2229.73974609375
0.1955	-0.0	-0.0	-0.0	3.322356700897217	15.313190460205078	-350.7418518066406	1.7109205722808838	-14.846477508544922	-381.639404296875	-0.0	-0.0	-0.0	-0.0	-0.0	-0.0	92598.4453125	-31576.048828125	-2347.4296875
0.196	-0.0	-0.0	-0.0	3.853456974029541	14.973907470703123	-350.9402770996094	1.8971140384674072	-15.085988998413086	-381.6059265136719	-0.0	-0.0	-0.0	-0.0	-0.0	-0.0	92146.4296875	-31172.619140625	-2290.900634765625
0.1965	-0.0	-0.0	-0.0	4.040806770324707	14.778106689453123	-350.9913635253906	2.053280830383301	-14.846627235412598	-378.3955078125	-0.0	-0.0	-0.0	-0.0	-0.0	-0.0	91404.7421875	-30923.80078125	-2397.89013671875
0.197	-0.0	-0.0	-0.0	4.586002826690674	14.42149257659912	-347.5465087890625	1.960304856300354	-14.947938919067385	-375.2868347167969	-0.0	-0.0	-0.0	-0.0	-0.0	-0.0	90562.8359375	-30409.080078125	-2145.459228515625
0.1975	-0.0	-0.0	-0.0	4.041166305541992	14.127052307128906	-346.4871520996094	2.226510524749756	-15.217437744140623	-374.2561340332031	-0.0	-0.0	-0.0	-0.0	-0.0	-0.0	90022.9765625	-30208.765625	-2138.0927734375
0.198	-0.0	-0.0	-0.0	3.961155414581299	14.434642791748049	-344.0860595703125	2.319704532623291	-15.694928169250488	-372.1782836914063	-0.0	-0.0	-0.0	-0.0	-0.0	-0.0	89397.5	-29747.45703125	-2279.097900390625
0.1985	-0.0	-0.0	-0.0	4.130829334259033	14.683915138244627	-342.937744140625	2.727806806564331	-15.279651641845703	-371.1307067871094	-0.0	-0.0	-0.0	-0.0	-0.0	-0.0	89238.4453125	-29539.076171875	-2225.25732421875
0.199	-0.0	-0.0	-0.0	4.634396076202393	14.617385864257812	-342.6385803222656	2.4130773544311523	-15.028042793273926	-370.4498901367188	-0.0	-0.0	-0.0	-0.0	-0.0	-0.0	88778.53125	-29277.5234375	-2142.3974609375
0.1995	-0.0	-0.0	-0.0	3.9573800563812256	14.448293685913086	-339.8317565917969	2.4884109497070312	-14.935343742370604	-370.0829772949219	-0.0	-0.0	-0.0	-0.0	-0.0	-0.0	88753.125	-28961.986328125	-2164.483154296875
0.2	-0.0	-0.0	-0.0	3.966896057128906	14.217951774597168	-339.4608764648437	2.222316265106201	-15.084901809692385	-369.40240478515625	-0.0	-0.0	-0.0	-0.0	-0.0	-0.0	88454.46875	-28541.236328125	-2284.861572265625
0.2005	-0.0	-0.0	-0.0	4.597080707550049	14.76776123046875	-338.401611328125	1.7696435451507568	-14.414643287658691	-369.42041015625	-0.0	-0.0	-0.0	-0.0	-0.0	-0.0	88584.9375	-28391.8671875	-2175.522216796875
0.201	-0.0	-0.0	-0.0	3.657630920410156	14.809701919555664	-340.3912048339844	1.5080833435058594	-14.224380493164062	-369.7334289550781	-0.0	-0.0	-0.0	-0.0	-0.0	-0.0	88393.6328125	-28327.087890625	-2583.31201171875
0.2015	-0.0	-0.0	-0.0	3.1460037231445312	15.246021270751951	-341.6723022460937	0.7329222559928894	-14.387181282043455	-370.1372985839844	-0.0	-0.0	-0.0	-0.0	-0.0	-0.0	88413.328125	-28204.4765625	-2708.7763671875
0.202	-0.0	-0.0	-0.0	3.1925649642944336	14.894275665283203	-339.7967224121094	0.4529004693031311	-14.117511749267578	-371.8464965820313	-0.0	-0.0	-0.0	-0.0	-0.0	-0.0	88712.3984375	-27793.982421875	-2964.979736328125
0.2025	-0.0	-0.0	-0.0	2.606269121170044	15.569099426269531	-342.603515625	-0.2614215910434723	-13.685171127319336	-371.7908630371094	-0.0	-0.0	-0.0	-0.0	-0.0	-0.0	88386.3828125	-27836.51171875	-3141.7490234375
0.203	-0.0	-0.0	-0.0	1.728801131248474	15.32077980041504	-345.2761535644531	-0.3500948846340179	-13.76400089263916	-370.56201171875	-0.0	-0.0	-0.0	-0.0	-0.0	-0.0	88445.4765625	-27343.0390625	-3327.705078125
0.20350000000000001	-0.0	-0.0	-0.0	2.1962780952453613	15.142467498779297	-342.9761962890625	-1.218079686164856	-13.262513160705566	-371.148193359375	-0.0	-0.0	-0.0	-0.0	-0.0	-0.0	88404.03125	-27491.677734375	-3414.003173828125
0.20400000000000001	-0.0	-0.0	-0.0	1.3234797716140747	15.15705680847168	-343.9778747558594	-1.4936480522155762	-13.085981369018556	-372.4311828613281	-0.0	-0.0	-0.0	-0.0	-0.0	-0.0	88461.2109375	-27665.353515625	-3503.1337890625
0.20450000000000002	-0.0	-0.0	-0.0	1.5959285497665403	14.964056015014648	-344.2528686523437	-1.685504913330078	-13.51804542541504	-372.8748474121094	-0.0	-0.0	-0.0	-0.0	-0.0	-0.0	88687.0625	-27733.92578125	-3793.521728515625
0.20500000000000002	-0.0	-0.0	-0.0	1.4372823238372805	14.874872207641602	-345.7435607910156	-1.764464020729065	-13.797600746154783	-372.5639953613281	-0.0	-0.0	-0.0	-0.0	-0.0	-0.0	89091.171875	-27356.671875	-3683.100341796875
0.20550000000000002	-0.0	-0.0	-0.0	1.328169345855713	14.716495513916016	-345.1358947753906	-1.6904175281524658	-13.778182983398438	-373.94140625	-0.0	-0.0	-0.0	-0.0	-0.0	-0.0	89102.015625	-27627.078125	-3740.727783203125
0.20600000000000002	-0.0	-0.0	-0.0	1.2690744400024414	14.622413635253906	-346.4496154785156	-1.7791658639907837	-14.043148040771484	-375.35748291015625	-0.0	-0.0	-0.0	-0.0	-0.0	-0.0	89183.7578125	-27634.849609375	-3851.2255859375
0.20650000000000002	-0.0	-0.0	-0.0	1.5267177820205688	14.701451301574709	-346.8226928710937	-2.1091082096099854	-14.219791412353516	-373.400146484375	-0.0	-0.0	-0.0	-0.0	-0.0	-0.0	89320.5	-27362.728515625	-3777.448486328125
0.20700000000000002	-0.0	-0.0	-0.0	1.4019103050231934	14.612298965454102	-345.5712280273437	-1.533131122589111	-14.41139793395996	-375.95745849609375	-0.0	-0.0	-0.0	-0.0	-0.0	-0.0	89340.390625	-27398.2578125	-3688.1171875
0.20750000000000002	-0.0	-0.0	-0.0	1.610918402671814	14.370492935180664	-346.055419921875	-2.118964672088623	-14.489781379699709	-376.345703125	-0.0	-0.0	-0.0	-0.0	-0.0	-0.0	89447.078125	-27252.798828125	-3752.982421875
0.20800000000000002	-0.0	-0.0	-0.0	1.8475857973098757	14.722002983093262	-345.8041076660156	-1.695673942565918	-14.93648910522461	-377.0036926269531	-0.0	-0.0	-0.0	-0.0	-0.0	-0.0	88908.2109375	-27274.111328125	-3698.642822265625
0.2085	-0.0	-0.0	-0.0	2.051841735839844	15.146980285644531	-345.7220764160156	-1.8578161001205444	-14.734457969665527	-375.6670227050781	-0.0	-0.0	-0.0	-0.0	-0.0	-0.0	88962.171875	-27105.513671875	-3777.5234375
0.209	-0.0	-0.0	-0.0	1.7946715354919434	14.397027969360352	-344.0386657714844	-1.6225333213806152	-14.759971618652344	-376.0363159179688	-0.0	-0.0	-0.0	-0.0	-0.0	-0.0	88890.2421875	-27040.916015625	-3770.5146484375
0.2095	-0.0	-0.0	-0.0	1.5271153450012207	14.71704387664795	-345.2222595214844	-1.2678776979446411	-15.607125282287598	-375.9138488769531	-0.0	-0.0	-0.0	-0.0	-0.0	-0.0	88735.125	-26679.080078125	-3831.527099609375
0.21	-0.0	-0.0	-0.0	1.6269662380218506	14.758620262145996	-343.0006103515625	-1.5655274391174316	-15.61218547821045	-374.9888305664063	-0.0	-0.0	-0.0	-0.0	-0.0	-0.0	88610.46875	-26415.1796875	-3829.99755859375
0.2105	-0.0	-0.0	-0.0	1.5325746536254885	14.947271347045898	-341.1084899902344	-1.2471996545791626	-15.378424644470217	-375.0094909667969	-0.0	-0.0	-0.0	-0.0	-0.0	-0.0	88383.9375	-26387.34375	-3773.881103515625
0.211	-0.0	-0.0	-0.0	1.8680510520935056	14.990001678466797	-342.1250915527344	-1.2525231838226318	-15.534090995788574	-373.8998107910156	-0.0	-0.0	-0.0	-0.0	-0.0	-0.0	88085.2109375	-26777.8203125	-3850.555908203125
0.2115	-0.0	-0.0	-0.0	2.046445846557617	14.952343940734863	-340.48681640625	-1.2419509887695312	-15.5287504196167	-374.6188049316406	-0.0	-0.0	-0.0	-0.0	-0.0	-0.0	88065.75	-26373.26171875	-3773.936767578125
0.212	-0.0	-0.0	-0.0	2.0246741771698	14.863062858581545	-340.1768493652344	-1.3199626207351685	-15.351995468139648	-372.343017578125	-0.0	-0.0	-0.0	-0.0	-0.0	-0.0	88236.4453125	-26221.10546875	-3719.99853515625
0.2125	-0.0	-0.0	-0.0	1.667643666267395	14.444591522216797	-338.7862243652344	-0.6856203079223633	-14.738994598388672	-373.7717895507813	-0.0	-0.0	-0.0	-0.0	-0.0	-0.0	87959.3984375	-26069.37109375	-3766.16015625
0.213	-0.0	-0.0	-0.0	1.5728230476379397	14.360973358154297	-337.286865234375	-1.236540913581848	-14.67755889892578	-373.8775329589844	-0.0	-0.0	-0.0	-0.0	-0.0	-0.0	87886.0390625	-26154.4609375	-3792.55908203125
0.2135	-0.0	-0.0	-0.0	1.2489471435546875	14.294021606445312	-338.7214660644531	-0.9594786763191224	-14.158583641052246	-372.9582214355469	-0.0	-0.0	-0.0	-0.0	-0.0	-0.0	87918.625	-26245.02734375	-3803.096923828125
0.214	-0.0	-0.0	-0.0	1.4273681640625	14.372249603271484	-337.61798095703125	-0.970334529876709	-14.115089416503906	-374.1826171875	-0.0	-0.0	-0.0	-0.0	-0.0	-0.0	88420.6875	-25961.599609375	-3832.770263671875
0.2145	-0.0	-0.0	-0.0	1.5109721422195437	14.188538551330566	-339.11932373046875	-1.1587618589401243	-13.695358276367188	-374.268798828125	-0.0	-0.0	-0.0	-0.0	-0.0	-0.0	87922.59375	-26197.4453125	-3864.32080078125
0.215	-0.0	-0.0	-0.0	1.6226869821548462	14.44475269317627	-335.9633483886719	-1.5025358200073242	-13.65672206878662	-375.0543212890625	-0.0	-0.0	-0.0	-0.0	-0.0	-0.0	88234.6875	-25936.271484375	-4011.037841796875
0.2155	-0.0	-0.0	-0.0	1.60011887550354	13.820877075195312	-338.94049072265625	-1.496913194656372	-13.943705558776855	-376.0143432617188	-0.0	-0.0	-0.0	-0.0	-0.0	-0.0	88321.4375	-25990.251953125	-4042.651123046875
0.216	-0.0	-0.0	-0.0	1.8620047569274905	13.564929962158203	-336.2724914550781	-2.112191200256348	-13.872102737426758	-376.5797119140625	-0.0	-0.0	-0.0	-0.0	-0.0	-0.0	88305.3828125	-26009.3828125	-4182.01513671875
